<?xml version="1.0" encoding="UTF-8"?>
<svg width="410px" height="224px" viewBox="0 0 410 224" version="1.1" xmlns="http://www.w3.org/2000/svg" xmlns:xlink="http://www.w3.org/1999/xlink">
    <!-- Generator: Sketch 64 (93537) - https://sketch.com -->
    <title>undraw_design_feedback_dexe</title>
    <desc>Created with Sketch.</desc>
    <g id="Website" stroke="none" stroke-width="1" fill="none" fill-rule="evenodd">
        <g id="Desktop---Diensten" transform="translate(-253.000000, -938.000000)" fill-rule="nonzero">
            <g id="undraw_design_feedback_dexe" transform="translate(253.000000, 938.000000)">
                <rect id="Rectangle" fill="#3F3D56" x="131" y="24" width="279" height="181"></rect>
                <rect id="Rectangle" fill="#D0CDE1" x="123" y="22" width="21" height="183"></rect>
                <rect id="Rectangle" fill="#D0CDE1" x="185" y="73" width="56" height="1"></rect>
                <path d="M368,171 L291,171 L291,99 L368,99 L368,171 Z M291.678415,170.320754 L367.321585,170.320754 L367.321585,99.6792422 L291.678415,99.6792422 L291.678415,170.320754 Z" id="Shape" fill="#D0CDE1"></path>
                <polygon id="Rectangle" fill="#D0CDE1" transform="translate(329.156855, 134.740823) rotate(-46.974870) translate(-329.156855, -134.740823) " points="328.826163 82.7499975 329.502087 82.749903 329.487548 186.731648 328.811624 186.731742"></polygon>
                <polygon id="Rectangle" fill="#D0CDE1" transform="translate(329.156861, 134.740843) rotate(-43.022340) translate(-329.156861, -134.740843) " points="277.166037 134.41015 381.14778 134.395612 381.147686 135.071536 277.165942 135.086075"></polygon>
                <rect id="Rectangle" fill="#D0CDE1" x="185" y="122" width="79" height="1"></rect>
                <rect id="Rectangle" fill="#D0CDE1" x="185" y="134" width="79" height="1"></rect>
                <rect id="Rectangle" fill="#D0CDE1" x="185" y="146" width="79" height="1"></rect>
                <circle id="Oval" fill="#3F3D56" cx="250" cy="7" r="7"></circle>
                <circle id="Oval" fill="#FF500B" cx="271" cy="7" r="7"></circle>
                <circle id="Oval" fill="#D0CDE1" cx="290" cy="7" r="7"></circle>
                <rect id="Rectangle" fill="#3F3D56" x="0" y="223" width="240" height="1"></rect>
                <circle id="Oval" fill="#2F2E41" cx="70.5" cy="78.5" r="4.5"></circle>
                <ellipse id="Oval" fill="#2F2E41" cx="80.5" cy="63" rx="13.5" ry="15"></ellipse>
                <path d="M71.489971,126.75345 L71.1404026,128.489152 C71.1404026,128.489152 70.0916902,129.53057 70.6160464,130.051281 C71.1404026,130.571992 70.9656185,133.00197 70.9656185,133.00197 L69.9169061,139.771202 L63.7994269,167.195265 C63.7994269,167.195265 55.759296,172.402367 49.4670475,182.642999 C43.1747989,192.88363 43,195.487178 43,195.487178 L49.9914037,198.437871 L67.4699129,177.435897 C67.4699129,177.435897 72.3638992,174.485208 74.1117483,171.881656 C75.8595974,169.278105 86.6962749,142.374753 86.6962749,142.374753 L92.8137541,170.493096 C92.8137541,170.493096 92.4641858,180.733728 94.0372507,187.329386 C95.004461,191.491756 95.5894743,195.732669 95.7850997,200 L104,199.132151 C104,199.132151 103.475647,174.485222 102.601719,171.881656 C102.601719,171.881656 106.272209,141.854042 98.9312332,129.877712 L94.5616069,112.347138 L87.2206311,112 L71.489971,126.75345 Z" id="Path" fill="#2F2E41"></path>
                <path d="M51.4404194,197.365554 L42.9551654,192 L39.0519396,199.615623 C39.0519396,199.615623 30.3969777,204.981177 32.2637349,208.962069 C34.1304921,212.94296 35.8275415,213.98146 35.8275415,213.98146 L37.0154782,213.462212 L39.2216438,217.616181 C39.2216438,217.616181 44.9916196,226.097215 54.3254019,221.77015 C55.224866,220.537437 55.224866,218.848894 54.3254019,217.616181 C52.7980532,215.366111 48.8948346,210.519805 48.8948346,210.519805 L51.4404194,197.365554 Z" id="Path" fill="#2F2E41"></path>
                <path d="M104.738652,198 L95.4151044,198.683716 L96.4322167,206.37556 C96.4322167,206.37556 92.0247238,217.315073 95.0760645,218.169725 C97.2469335,218.735182 99.4569186,219.135146 101.687308,219.366231 L102.026347,218.169725 C102.026347,218.169725 115.079312,225.348778 119.825844,220.049951 C119.825844,220.049951 120.84296,216.289495 117.961134,215.092985 C115.079308,213.896475 109.485185,211.332529 108.807108,209.965087 C108.129032,208.597644 104.738652,198 104.738652,198 Z" id="Path" fill="#2F2E41"></path>
                <circle id="Oval" fill="#FFB8B8" cx="81.5" cy="65.5" r="8.5"></circle>
                <path d="M74.9687125,70 C74.9687125,70 75.9888408,76.7241384 70.8881993,79.3103461 C65.7875578,81.8965537 84.3199133,85 84.3199133,85 C84.3199133,85 81.4295419,80.5172435 81.9396079,78.9655203 C82.4496738,77.4137972 85,71.2068974 85,71.2068974 L74.9687125,70 Z" id="Path" fill="#FFB8B8"></path>
                <path d="M72.9879676,79.921192 C72.9879676,79.921192 67.9092159,76.9895457 66.157925,78.3691444 C64.4066341,79.7487431 63.8812417,121.998956 70.1859066,123.723456 L70.3610201,125.965303 C70.3610201,125.965303 68.0843368,127 70.1859066,127 C72.2874764,127 82.0946971,119.929558 82.4449649,117.342809 C82.7952327,114.756061 92.9527213,114.238714 92.9527213,114.238714 C92.9527213,114.238714 95.5796613,125.275503 96.4553067,124.930602 C97.3309522,124.5857 97.3309559,117.17036 96.9806955,116.135659 C96.6304351,115.100959 101.008677,111.824414 99.7827638,109.755016 C98.5568506,107.685618 95.2294046,100.615176 95.2294046,100.615176 C95.2294046,100.615176 95.5796428,96.1314784 90.8511663,91.9926897 C90.8511663,91.9926897 89.4693243,84.2895226 83.2426386,84.1747608 C77.0159529,84.059999 72.9879676,79.921192 72.9879676,79.921192 Z" id="Path" fill="#575A89"></path>
                <polygon id="Path" fill="#2F2E41" points="73 55 73 65 75.2666164 65 78.1513666 61.8421053 77.7651744 65 87.7850519 65 87.1669181 61.8421053 88.4031857 65 90 65 90 55"></polygon>
                <rect id="Rectangle" fill="#FF500B" x="21" y="140" width="72" height="66"></rect>
                <path d="M63.3905812,174.693174 C57.2336853,184.634301 59.3519529,197 59.3519529,197 C59.3519529,197 71.4525229,193.24795 77.6094188,183.306826 C83.7663147,173.365702 81.6480471,161 81.6480471,161 C81.6480471,161 69.5474771,164.75205 63.3905812,174.693174 Z" id="Path" fill="#3F3D56"></path>
                <path d="M58.9920531,197 L58.6544244,196.945336 C58.5323302,196.925547 46.3795969,194.86739 39.1014094,185.966537 C31.8231645,177.065402 31.9983184,164.475405 32.0007012,164.349259 L32.0079464,164 L32.3455787,164.054661 C32.4676693,164.07445 44.6204062,166.132606 51.8986368,175.033745 L51.8986368,175.033745 C59.176835,183.934587 59.0016846,196.52458 58.9992983,196.650726 L58.9920531,197 Z" id="Path" fill="#D0CDE1"></path>
                <circle id="Oval" fill="#3F3D56" cx="60.5" cy="158.5" r="6.5"></circle>
                <path d="M61,122.952746 L63.0304112,138.340034 C63.0304112,138.340034 61.8460142,151.825519 66.4144001,151.998412 C70.9827859,152.171306 68.1063927,138.167141 68.1063927,138.167141 L67.5987935,124.162983 C67.5987935,124.162983 63.8763896,117.938912 61,122.952746 Z" id="Path" fill="#FFB8B8"></path>
                <path d="M68.0526337,79.6953955 C68.0526337,79.6953955 66.792927,76.397358 64.0935565,79.001072 C61.394186,81.6047861 59.0547334,88.3744376 59.0547334,92.5403713 C59.0547334,96.706305 59.5946082,120.834059 59.5946082,120.834059 C59.5946082,120.834059 56.7152807,121.875542 58.6948193,123.437769 C60.674358,125 63.3737246,122.569866 63.3737246,122.569866 C63.3737246,122.569866 66.972884,125 67.3328018,125 C67.6927197,125 67.5127436,122.049122 67.5127436,122.049122 C67.5127436,122.049122 69.3123252,117.536021 68.9524074,114.064385 C68.5924895,110.59275 68.0526337,79.6953955 68.0526337,79.6953955 Z" id="Path" fill="#575A89"></path>
                <path d="M367,63 L184,63 L184,50 L367,50 L367,63 Z M184.675288,62.2972967 L366.324726,62.2972967 L366.324726,50.7027033 L184.675288,50.7027033 L184.675288,62.2972967 Z" id="Shape" fill="#D0CDE1"></path>
                <path d="M40,158 L22,158 C23.3895045,152.40812 23.221862,146.358878 22,140 L40,140 C37.4803086,146 37.4803086,152 40,158 Z" id="Path" fill="#D0CDE1"></path>
                <rect id="Rectangle" fill="#3F3D56" x="25" y="145" width="11" height="2"></rect>
                <rect id="Rectangle" fill="#3F3D56" x="25" y="149" width="11" height="2"></rect>
                <rect id="Rectangle" fill="#3F3D56" x="25" y="153" width="11" height="2"></rect>
                <path d="M203,88 L185,88 C186.389504,82.40812 186.221862,76.3588784 185,70 L203,70 C200.480311,76 200.480311,82 203,88 Z" id="Path" fill="#D0CDE1"></path>
                <rect id="Rectangle" fill="#3F3D56" x="187" y="74" width="11" height="2"></rect>
                <rect id="Rectangle" fill="#3F3D56" x="187" y="78" width="11" height="2"></rect>
                <rect id="Rectangle" fill="#3F3D56" x="187" y="82" width="11" height="2"></rect>
                <path d="M338,115 L320,115 C321.389504,109.40812 321.221862,103.358878 320,97 L338,97 C335.480311,103 335.480311,109 338,115 Z" id="Path" fill="#D0CDE1"></path>
                <rect id="Rectangle" fill="#3F3D56" x="323" y="101" width="11" height="2"></rect>
                <rect id="Rectangle" fill="#3F3D56" x="323" y="105" width="11" height="2"></rect>
                <rect id="Rectangle" fill="#3F3D56" x="323" y="110" width="11" height="2"></rect>
                <path d="M361,76 L343,76 C344.389504,70.40812 344.221862,64.3588784 343,58 L361,58 C358.480311,64 358.480311,70 361,76 Z" id="Path" fill="#D0CDE1"></path>
                <rect id="Rectangle" fill="#3F3D56" x="346" y="63" width="11" height="2"></rect>
                <rect id="Rectangle" fill="#3F3D56" x="346" y="67" width="11" height="2"></rect>
                <rect id="Rectangle" fill="#3F3D56" x="346" y="71" width="11" height="2"></rect>
                <path d="M138,97 L128,97 L128,87 L138,87 L138,97 Z M128.769231,96.2307692 L137.230769,96.2307692 L137.230769,87.7692308 L128.769231,87.7692308 L128.769231,96.2307692 Z" id="Shape" fill="#3F3D56"></path>
                <path d="M139,119 L129,119 L129,109 L139,109 L139,119 Z M129.769231,118.230769 L138.230769,118.230769 L138.230769,109.769231 L129.769231,109.769231 L129.769231,118.230769 Z" id="Shape" fill="#3F3D56"></path>
                <path d="M139,140 L129,140 L129,130 L139,130 L139,140 Z M129.769231,139.230769 L138.230769,139.230769 L138.230769,130.769231 L129.769231,130.769231 L129.769231,139.230769 Z" id="Shape" fill="#3F3D56"></path>
                <circle id="Oval" fill="#FF500B" cx="129" cy="130" r="3"></circle>
            </g>
        </g>
    </g>
</svg>