<?xml version="1.0" encoding="UTF-8"?>
<svg width="281px" height="224px" viewBox="0 0 281 224" version="1.1" xmlns="http://www.w3.org/2000/svg" xmlns:xlink="http://www.w3.org/1999/xlink">
    <!-- Generator: Sketch 64 (93537) - https://sketch.com -->
    <title>undraw_predictive_analytics_kf9n</title>
    <desc>Created with Sketch.</desc>
    <g id="Website" stroke="none" stroke-width="1" fill="none" fill-rule="evenodd">
        <g id="Desktop---Diensten" transform="translate(-786.000000, -680.000000)" fill-rule="nonzero">
            <g id="undraw_predictive_analytics_kf9n" transform="translate(786.000000, 680.000000)">
                <polygon id="Path" fill="#F2F2F2" points="44.6054969 0 26.0320651 35.6080494 29.781428 35.6080494 29.781428 64.6450864 10.8858486 64.6450864 0 85.5144198 134.883517 153.487358 179.489365 67.9729383"></polygon>
                <rect id="Rectangle" fill="#3F3D56" x="40.683901" y="23.1634701" width="206.793492" height="101.975309"></rect>
                <rect id="Rectangle" fill="#FF500B" opacity="0.3" x="69.698294" y="59.8054454" width="152.633292" height="1"></rect>
                <rect id="Rectangle" fill="#FF500B" opacity="0.3" x="69.8741388" y="68.4474207" width="152.633292" height="1"></rect>
                <rect id="Rectangle" fill="#FF500B" opacity="0.3" x="69.8741388" y="85.7313714" width="152.633292" height="1"></rect>
                <rect id="Rectangle" fill="#FF500B" opacity="0.3" x="69.8741388" y="93.3363096" width="152.633292" height="1"></rect>
                <rect id="Rectangle" fill="#FF500B" opacity="0.3" x="69.8741388" y="77.089396" width="152.633292" height="1"></rect>
                <ellipse id="Oval" fill="#3F3D56" cx="199.295916" cy="217.780754" rx="65.4142678" ry="5.87654321"></ellipse>
                <polygon id="Path" fill="#FF500B" points="74.1087384 93.586716 73.6234068 93.0861728 96.3429074 71.801679 116.370224 85.9613827 132.565882 68.3123951 139.667551 74.2456296 158.985509 62.8527407 180.443499 77.0286914 214.121648 58.1999012 214.469118 58.8006914 180.412551 77.8413827 158.964408 63.6716543 139.596509 75.0935802 132.630593 69.2737284 116.470807 86.884 96.4055081 72.6980247"></polygon>
                <path d="M139.535189,205.971633 C141.18813,211.977419 146.849763,215.696966 146.849763,215.696966 C146.849763,215.696966 149.831486,209.6792 148.178559,203.673417 C146.525632,197.667635 140.863985,193.948084 140.863985,193.948084 C140.863985,193.948084 137.882248,199.965847 139.535189,205.971633 Z" id="Path" fill="#3F3D56"></path>
                <path d="M141.964049,204.680926 C146.499705,209.020743 147.053701,215.692054 147.053701,215.692054 C147.053701,215.692054 140.253947,215.327131 135.718291,210.987311 C131.182634,206.647491 130.628639,199.976183 130.628639,199.976183 C130.628639,199.976183 137.428396,200.341106 141.964049,204.680926 Z" id="Path" fill="#FF500B"></path>
                <ellipse id="Oval" fill="#FF500B" opacity="0.4" cx="269.106304" cy="18.4968035" rx="11.781602" ry="11.5802469"></ellipse>
                <ellipse id="Oval" fill="#FF500B" opacity="0.4" cx="247.301548" cy="24.0276677" rx="8.26470588" ry="8.12345679"></ellipse>
                <ellipse id="Oval" fill="#FF500B" opacity="0.4" cx="237.102549" cy="173.015322" rx="4.39612015" ry="4.32098765"></ellipse>
                <ellipse id="Oval" fill="#FF500B" opacity="0.4" cx="162.192662" cy="195.484458" rx="3.34105131" ry="3.28395062"></ellipse>
                <ellipse id="Oval" fill="#FF500B" opacity="0.4" cx="150.938594" cy="151.928902" rx="4.39612015" ry="4.32098765"></ellipse>
                <ellipse id="Oval" fill="#FF500B" cx="213.891035" cy="59.9782849" rx="4.57196496" ry="4.49382716"></ellipse>
                <path d="M184.18471,141.373853 L180.308911,141.797137 C180.308911,141.797137 178.586336,149.416248 180.308911,159.575063 C182.031487,169.733878 184.18471,179.892692 184.18471,179.892692 C184.18471,179.892692 185.907286,212.908868 186.768574,213.332156 C187.629862,213.755443 195.381452,216.295143 195.812107,213.75544 C196.242761,211.215736 196.242751,153.225783 196.242751,153.225783 L202.271766,181.162548 C202.271766,181.162548 203.133054,216.295143 204.855629,216.295143 C206.578205,216.295143 212.176583,215.871859 212.176583,212.908872 C212.176583,209.945884 213.468515,171.003726 213.468515,171.003726 C213.468515,171.003726 213.037871,142.220393 211.315292,141.373825 C209.592713,140.527257 184.18471,141.373853 184.18471,141.373853 Z" id="Path" fill="#2F2E41"></path>
                <path d="M187.629865,212.062331 C187.629865,212.062331 183.754066,211.639047 182.892775,212.062331 C182.031483,212.485615 180.739555,215.448603 182.892775,217.141739 C185.045995,218.834875 190.644366,221.374578 192.366941,221.374578 C193.561489,221.3225 194.733147,221.034592 195.812093,220.52801 L194.950805,213.33218 L187.629865,212.062331 Z" id="Path" fill="#2F2E41"></path>
                <path d="M204.855636,214.178755 L205.28628,220.10473 C205.28628,220.10473 210.884655,220.951298 211.315295,220.10473 C211.745936,219.258162 216.052382,217.141739 216.483022,216.718458 C216.913663,216.295178 217.34431,211.639051 214.760447,211.215763 C212.176583,210.792476 211.315295,212.062331 211.315295,212.062331 L204.855636,214.178755 Z" id="Path" fill="#2F2E41"></path>
                <path d="M168.681515,105.81798 C168.681515,105.81798 158.34606,115.553518 159.637985,120.632929 C160.92991,125.71234 171.265382,140.527264 171.265382,140.527264 C171.265382,140.527264 181.170199,145.606672 182.462124,140.527264 C183.754049,135.447857 175.571821,136.717705 175.571821,136.717705 L169.112155,121.479483 L176.433109,111.320668 L168.681515,105.81798 Z" id="Path" fill="#FFB8B8"></path>
                <path d="M214.863168,91.0065714 C214.863168,91.0065714 224.278356,85.0554998 224.06046,80.9669951 C223.842564,76.8784904 218.166673,63.9873146 218.166673,63.9873146 C218.166673,63.9873146 213.726462,54.913479 211.961265,58.6217679 C210.196068,62.3300568 214.281287,66.2774242 214.281287,66.2774242 L216.91807,78.9231472 L209.752014,85.6426701 L214.863168,91.0065714 Z" id="Path" fill="#FFB8B8"></path>
                <ellipse id="Oval" fill="#FFB8B8" cx="191.50566" cy="74.9182138" rx="7.75159777" ry="7.61911802"></ellipse>
                <path d="M187.629865,79.5743407 L188.921797,87.6167427 L198.395963,85.9236069 C198.395963,85.9236069 197.965319,77.8812049 197.965319,77.034637 C197.965319,76.1880691 187.629865,79.5743407 187.629865,79.5743407 Z" id="Path" fill="#FFB8B8"></path>
                <path d="M187.199218,87.6167427 C187.199218,87.6167427 197.965326,85.077039 199.257248,85.9236069 C200.549169,86.7701748 207.008838,87.6167427 207.008838,87.6167427 L214.329792,98.6221254 L212.176573,112.590506 C212.176573,112.590506 211.745925,135.024576 212.607217,138.834135 C213.468508,142.643694 218.205591,143.066975 208.300777,143.913543 C198.395963,144.760111 196.673381,143.490259 189.783071,145.183398 C182.892761,146.876537 177.294386,144.33683 179.016962,142.643694 C180.739538,140.950559 183.754052,113.860361 180.308897,111.320654 C176.863742,108.780947 175.57181,95.6591343 175.57181,95.6591343 C175.57181,95.6591343 187.199218,89.7331659 187.199218,87.6167427 Z" id="Path" fill="#D0CDE1"></path>
                <path d="M205.716924,88.8865946 L207.008856,87.6167427 L209.59272,85.077039 C209.59272,85.077039 217.990283,88.6749526 217.559639,89.9448079 C217.128995,91.2146632 214.329806,98.6221358 214.329806,98.6221358 L210.454007,99.8919877 L205.716924,88.8865946 Z" id="Path" fill="#D0CDE1"></path>
                <path d="M180.739555,96.5057126 L175.571828,95.6591447 C175.571828,95.6591447 171.696029,99.8919842 170.404101,101.58512 C169.112173,103.278256 166.528302,107.511095 166.528302,107.511095 L175.571835,113.860361 L182.462138,106.664527 L180.739555,96.5057126 Z" id="Path" fill="#D0CDE1"></path>
                <path d="M194.210853,65.6875748 L194.131414,65.0772198 C193.604523,65.0742705 193.080622,65.1551877 192.580044,65.3168306 C192.52884,64.9487761 192.561554,64.5741351 192.675816,64.2200395 C192.167153,64.3485861 191.68248,64.5557004 191.239899,64.8336474 L190.92673,63.7197417 L186.621662,65.8051679 C185.076307,66.5537565 183.447024,67.3763827 182.563622,68.8302049 C181.57876,70.4510143 181.750163,72.5340311 182.423392,74.3021378 C183.096621,76.0702444 184.215349,77.6349467 185.112077,79.3044588 C185.452551,80.0223434 185.861686,80.706789 186.333959,81.348559 C187.958955,83.3396701 191.122069,83.7419299 193.413221,82.5402148 C194.285009,82.1273107 194.979944,81.4244025 195.37489,80.5560415 C195.541872,80.0173219 195.672769,79.4684285 195.766739,78.9128874 C196.050144,77.7750849 196.379136,75.4263689 197.319361,74.7065753 C197.733095,74.3898296 198.553397,75.4398504 198.896256,75.0498069 C199.777358,74.0474553 199.59244,72.5016375 199.045232,71.2910454 C198.52,70.0752067 197.906092,68.8982521 197.208301,67.7693714 C196.912621,67.3155328 194.201323,65.6143635 194.210853,65.6875748 Z" id="Path" fill="#2F2E41"></path>
                <rect id="Rectangle" fill="#3F3D56" x="4.45987093" y="39.7560627" width="22.5081352" height="22.1234568"></rect>
            </g>
        </g>
    </g>
</svg>