<?xml version="1.0" encoding="UTF-8"?>
<svg width="1440px" height="516px" viewBox="0 0 1440 516" version="1.1" xmlns="http://www.w3.org/2000/svg" xmlns:xlink="http://www.w3.org/1999/xlink">
    <!-- Generator: Sketch 64 (93537) - https://sketch.com -->
    <title>Desktop - Diensten_DataIntellegence</title>
    <desc>Created with Sketch.</desc>
    <g id="Desktop---Diensten_DataIntellegence" stroke="none" stroke-width="1" fill="none" fill-rule="evenodd">
        <rect fill="#FFFFFF" x="0" y="0" width="1440" height="516"></rect>
        <g id="Desktop---Diensten_InformationArchitecture" fill-rule="nonzero">
            <rect id="Rectangle" fill="#FFFFFF" x="0" y="0" width="1447" height="519"></rect>
            <circle id="Oval" fill-opacity="0.6" fill="#FFB99D" cx="1339.5" cy="353.5" r="256.5"></circle>
            <g id="undraw_annotation_7das" transform="translate(26.000000, 108.000000)">
                <path d="M602.862448,361.904871 C594.396811,377.28774 150.042845,375.9964 150.714659,361.903962 C159.18018,346.522009 603.534147,347.81336 602.862448,361.904871 Z" id="Path" fill="#D0CDE1"></path>
                <rect id="Rectangle" fill="#2F2E41" x="419.993641" y="24.1269841" width="74.3529412" height="64.3386243"></rect>
                <rect id="Rectangle" fill="#3F3D56" x="167.796502" y="41.2169312" width="213.011129" height="177.936508"></rect>
                <rect id="Rectangle" fill="#FFFFFF" x="232.101749" y="71.3756614" width="84.4006359" height="10.0529101"></rect>
                <rect id="Rectangle" fill="#FFFFFF" x="197.939587" y="94.4973545" width="59.281399" height="7.03703704"></rect>
                <rect id="Rectangle" fill="#FFFFFF" x="244.158983" y="137.724868" width="59.281399" height="7.03703704"></rect>
                <rect id="Rectangle" fill="#FF500B" x="293.392687" y="94.4973545" width="59.281399" height="7.03703704"></rect>
                <rect id="Rectangle" fill="#FF500B" x="430.041335" y="59.3121693" width="54.2575517" height="3.01587302"></rect>
                <rect id="Rectangle" fill="#FF500B" x="430.041335" y="66.3492063" width="54.2575517" height="3.01587302"></rect>
                <rect id="Rectangle" fill="#FF500B" x="430.041335" y="73.3862434" width="54.2575517" height="3.01587302"></rect>
                <rect id="Rectangle" fill="#FF500B" x="430.041335" y="37.1957672" width="54.2575517" height="3.01587302"></rect>
                <rect id="Rectangle" fill="#FF500B" x="430.041335" y="44.2328042" width="54.2575517" height="3.01587302"></rect>
                <rect id="Rectangle" fill="#FF500B" x="430.041335" y="51.2698413" width="54.2575517" height="3.01587302"></rect>
                <rect id="Rectangle" fill="#3F3D56" x="442.098569" y="44.2328042" width="74.3529412" height="64.3386243"></rect>
                <rect id="Rectangle" fill="#FF500B" x="451.141494" y="81.4285714" width="54.2575517" height="3.01587302"></rect>
                <rect id="Rectangle" fill="#FF500B" x="451.141494" y="86.4550265" width="54.2575517" height="3.01587302"></rect>
                <rect id="Rectangle" fill="#FF500B" x="451.141494" y="93.4920635" width="54.2575517" height="3.01587302"></rect>
                <rect id="Rectangle" fill="#FF500B" x="451.141494" y="59.3121693" width="54.2575517" height="3.01587302"></rect>
                <rect id="Rectangle" fill="#FF500B" x="451.141494" y="66.3492063" width="54.2575517" height="3.01587302"></rect>
                <rect id="Rectangle" fill="#FF500B" x="451.141494" y="73.3862434" width="54.2575517" height="3.01587302"></rect>
                <rect id="Rectangle" fill="#3F3D56" x="0" y="69.3650794" width="74.3529412" height="64.3386243"></rect>
                <rect id="Rectangle" fill="#FF500B" x="10.0476948" y="105.555556" width="54.2575517" height="3.01587302"></rect>
                <rect id="Rectangle" fill="#FF500B" x="8.0381558" y="112.592593" width="54.2575517" height="3.01587302"></rect>
                <rect id="Rectangle" fill="#FF500B" x="10.0476948" y="118.624339" width="54.2575517" height="3.01587302"></rect>
                <rect id="Rectangle" fill="#FF500B" x="10.0476948" y="85.4497354" width="54.2575517" height="3.01587302"></rect>
                <rect id="Rectangle" fill="#FF500B" x="8.0381558" y="90.4761905" width="54.2575517" height="3.01587302"></rect>
                <rect id="Rectangle" fill="#FF500B" x="10.0476948" y="96.5079365" width="54.2575517" height="3.01587302"></rect>
                <rect id="Rectangle" fill="#FFFFFF" x="198.944356" y="115.608466" width="153.72973" height="7.03703704"></rect>
                <rect id="Rectangle" fill="#FF500B" x="196.934817" y="137.724868" width="35.1669316" height="7.03703704"></rect>
                <rect id="Rectangle" fill="#FFFFFF" x="196.934817" y="177.936508" width="35.1669316" height="7.03703704"></rect>
                <rect id="Rectangle" fill="#FFFFFF" x="317.507154" y="137.724868" width="35.1669316" height="7.03703704"></rect>
                <rect id="Rectangle" fill="#FFFFFF" x="198.944356" y="157.830688" width="153.72973" height="7.03703704"></rect>
                <rect id="Rectangle" fill="#FFFFFF" x="261.240064" y="177.936508" width="91.4340223" height="7.03703704"></rect>
                <polygon id="Path" fill="#2F2E41" points="338.600607 99.5238095 337.602544 98.7611331 405.677359 10.0529101 473.246423 10.0529101 473.246423 11.3081864 406.298553 11.3081864"></polygon>
                <polygon id="Path" fill="#2F2E41" points="201.140494 140.740741 101.262541 55.5407627 34.1621622 55.5407627 34.1621622 54.2857143 101.727272 54.2857143 201.958665 139.786953"></polygon>
                <ellipse id="Oval" fill="#FF500B" cx="471.236884" cy="10.0529101" rx="10.0476948" ry="10.0529101"></ellipse>
                <ellipse id="Oval" fill="#FF500B" cx="35.1669316" cy="56.2962963" rx="10.0476948" ry="10.0529101"></ellipse>
                <path d="M558.945615,351.851852 C558.945615,351.851852 573.389477,301.88637 518.461049,273.439153 L558.945615,351.851852 Z" id="Path" fill="#D0CDE1"></path>
                <path d="M560.661367,350.846561 C560.661367,350.846561 566.521634,301.655043 632,298.571429 L560.661367,350.846561 Z" id="Path" fill="#D0CDE1"></path>
                <polygon id="Path" fill="#FFB9B9" points="313.488159 343.78684 298.416534 342.804233 303.440409 364.920635 320.521463 358.040003"></polygon>
                <polygon id="Path" fill="#2F2E41" points="450.639206 302.164849 415.472532 268.412698 395.377289 283.799637 355.688394 330.954012 360.210006 337.902914 408.439318 305.6399 441.093784 347.830688 472.241653 332.443149"></polygon>
                <polygon id="Path" fill="#000000" opacity="0.1" points="450.639206 302.164849 415.472532 268.412698 395.377289 283.799637 355.688394 330.954012 360.210006 337.902914 408.439318 305.6399 441.093784 347.830688 472.241653 332.443149"></polygon>
                <path d="M454.155803,324.07286 L449.600342,327.724868 L412.650492,314.681987 L404.045734,311.029986 L386.836248,314.681962 C386.836248,314.681962 386.836248,300.073943 403.033441,300.595659 L419.736801,304.769378 L439.477158,306.334524 L454.155803,324.07286 Z" id="Path" fill="#FFB9B9"></path>
                <polygon id="Path" fill="#2F2E41" points="487.313196 360.899621 476.29208 367.936508 463.267291 367.936508 402.652064 345.317246 313.983584 361.402081 311.478537 342.301871 392.633088 306.613757 463.768664 330.23794"></polygon>
                <path d="M416.431109,271.89542 L408.968543,273.439153 L407.342337,271.476806 C404.710135,268.300515 404.174708,263.801912 405.983517,260.060147 L405.983517,260.060147 L426.878696,231.758368 C426.878696,231.758368 432.848749,217.864762 442.301329,223.525118 C451.753908,229.185473 434.341262,238.447877 434.341262,238.447877 L423.893669,255.428951 L424.888683,264.176774 L416.431109,271.89542 Z" id="Path" fill="#FFB9B9"></path>
                <ellipse id="Oval" fill="#FFB9B9" cx="463.701113" cy="219.656085" rx="19.5930048" ry="19.6031746"></ellipse>
                <path d="M456.165342,234.354313 L465.060023,256.349206 L486.308426,247.142046 C486.308426,247.142046 479.390342,229.750729 479.390342,229.239224 C479.390342,228.727719 456.165342,234.354313 456.165342,234.354313 Z" id="Path" fill="#FFB9B9"></path>
                <path d="M515.446742,297.336963 C515.446742,309.181217 513.573151,320.951477 509.895582,332.214829 L508.420669,336.733727 L501.349124,368.939523 L493.772467,370.952381 L488.216253,363.907364 L477.103826,355.855919 L469.022057,342.772297 L462.091957,331.268794 L459.930074,327.675816 L452.353417,289.934644 L423.562125,273.831753 L413.965024,272.322105 L415.985468,266.786736 L424.572332,255.212815 L433.159208,254.20638 L435.684759,252.193521 L437.705203,253.19995 L445.786966,248.67101 L448.312523,249.67744 L463.081943,251.046172 L472.052726,249.174228 L484.953234,242.275132 L490.236704,243.13564 L508.420657,258.232103 C513.069237,270.749536 515.448242,283.990295 515.446742,297.336963 L515.446742,297.336963 Z" id="Path" fill="#575A89"></path>
                <path d="M301.705079,351.810616 C301.705079,351.810616 306.300325,344.209671 304.359395,343.322275 C302.418464,342.43488 294.175636,338.897252 294.175636,338.897252 L282.087672,334.987611 C282.087672,334.987611 264.645466,309.688188 264.262614,331.688929 C263.879761,353.689671 276.962667,358.978201 276.962667,358.978201 C276.962667,358.978201 288.631047,383.485789 295.240674,379.577788 C301.8503,375.669785 308.464229,362.403727 308.464229,362.403727 C308.464229,362.403727 296.545031,356.150368 301.705079,351.810616 Z" id="Path" fill="#2F2E41"></path>
                <polygon id="Path" fill="#000000" opacity="0.1" points="510.422893 294.52319 491.160678 307.074733 462.408587 332.751323 460.23893 329.166468 454.155803 299.041429 455.676585 299.041429 471.391126 270.42328"></polygon>
                <polygon id="Path" fill="#575A89" points="469.729923 266.402116 454.155623 295.052687 448.629592 295.052687 445.112972 305.106148 437.074722 307.116597 458.677252 330.740741 489.323042 303.095091 508.413355 290.529329"></polygon>
                <path d="M448.905256,203.493655 L446.781398,204.317586 C446.121469,203.86706 445.669208,203.167622 445.526608,202.377011 C445.384008,201.5864 445.563077,200.771193 446.023432,200.115237 L442.098569,199.930045 C447.195022,193.086004 454.957171,188.773726 463.417763,188.086122 C471.878354,187.398518 480.225282,190.401589 486.343088,196.334231 C486.521773,195.71368 488.469717,196.92101 489.264998,198.145198 C489.532215,197.135422 491.358656,202.016714 492.004651,205.46713 C492.303734,204.318284 493.45368,206.172935 492.446227,207.952562 C493.084543,207.858524 493.372877,209.505238 492.878725,210.422637 C493.577036,210.09184 493.459349,212.057534 492.702191,213.371179 C493.698666,213.281906 484.843342,227.139532 481.257968,235.238095 C480.216893,230.414932 479.046338,225.33605 475.689383,221.743305 C475.118778,221.132623 474.493925,220.576406 473.870086,220.021169 L470.495975,217.018094 C466.572522,213.52609 463.003462,209.216244 457.776742,207.911127 C454.184802,207.01422 451.913632,206.811717 453.871139,202.730592 C452.102579,203.474745 450.451031,204.581396 448.666613,205.272566 C448.69058,204.702327 448.939965,204.064213 448.905256,203.493655 Z" id="Path" fill="#2F2E41"></path>
                <ellipse id="Oval" fill="#FFB9B9" cx="474.753577" cy="222.671958" rx="3.51669316" ry="3.51851852"></ellipse>
            </g>
        </g>
    </g>
</svg>