<?xml version="1.0" encoding="UTF-8"?>
<svg width="1440px" height="516px" viewBox="0 0 1440 516" version="1.1" xmlns="http://www.w3.org/2000/svg" xmlns:xlink="http://www.w3.org/1999/xlink">
    <!-- Generator: Sketch 64 (93537) - https://sketch.com -->
    <title>Desktop - Diensten_DataIntellegence</title>
    <desc>Created with Sketch.</desc>
    <g id="Desktop---Diensten_DataIntellegence" stroke="none" stroke-width="1" fill="none" fill-rule="evenodd">
        <rect fill="#FFFFFF" x="0" y="0" width="1440" height="516"></rect>
        <g id="Desktop---Diensten_DesignConcept" fill-rule="nonzero">
            <rect id="Rectangle" fill="#FFFFFF" x="0" y="0" width="1342" height="481"></rect>
            <circle id="Oval" fill-opacity="0.6" fill="#FFB99D" cx="1164.5" cy="342.5" r="310.5"></circle>
            <g id="undraw_design_feedback_dexe" transform="translate(33.000000, 190.000000)">
                <rect id="Rectangle" fill="#3F3D56" x="173.131579" y="34.6609195" width="438.868421" height="265.109195"></rect>
                <rect id="Rectangle" fill="#D0CDE1" x="160.046053" y="31.8505747" width="33.2171053" height="267.91954"></rect>
                <rect id="Rectangle" fill="#D0CDE1" x="257.684211" y="106.793103" width="88.5789474" height="1.87356322"></rect>
                <path d="M545.565789,250.12069 L424.776316,250.12069 L424.776316,144.264368 L545.565789,144.264368 L545.565789,250.12069 Z M425.840542,249.122044 L544.501564,249.122044 L544.501564,145.263008 L425.840542,145.263008 L425.840542,249.122044 Z" id="Shape" fill="#D0CDE1"></path>
                <polygon id="Rectangle" fill="#D0CDE1" transform="translate(484.777123, 197.223008) rotate(-46.974870) translate(-484.777123, -197.223008) " points="481.42399 118.048912 482.447958 118.085849 488.130256 276.397103 487.106288 276.360166"></polygon>
                <polygon id="Rectangle" fill="#D0CDE1" transform="translate(484.777132, 197.223038) rotate(-43.022340) translate(-484.777132, -197.223038) " points="405.60276 193.869925 563.914568 199.552185 563.951504 200.57615 405.639696 194.89389"></polygon>
                <rect id="Rectangle" fill="#D0CDE1" x="257.684211" y="177.988506" width="124.815789" height="1.87356322"></rect>
                <rect id="Rectangle" fill="#D0CDE1" x="257.684211" y="195.787356" width="124.815789" height="1.87356322"></rect>
                <rect id="Rectangle" fill="#D0CDE1" x="257.684211" y="213.586207" width="124.815789" height="1.87356322"></rect>
                <ellipse id="Oval" fill="#3F3D56" cx="360.355263" cy="10.3045977" rx="11.0723684" ry="10.3045977"></ellipse>
                <ellipse id="Oval" fill="#FF500B" cx="393.572368" cy="10.3045977" rx="11.0723684" ry="10.3045977"></ellipse>
                <ellipse id="Oval" fill="#D0CDE1" cx="422.763158" cy="10.3045977" rx="11.0723684" ry="10.3045977"></ellipse>
                <ellipse id="Oval" fill="#2F2E41" cx="77.5065789" cy="115.224138" rx="7.04605263" ry="6.55747126"></ellipse>
                <ellipse id="Oval" fill="#2F2E41" cx="93.6118421" cy="92.2729885" rx="21.1381579" ry="22.0143678"></ellipse>
                <path d="M78.8852167,185.610247 L78.337225,188.160069 C78.337225,188.160069 76.69324,189.689958 77.5152325,190.454906 C78.337225,191.219853 78.0632292,194.789598 78.0632292,194.789598 L76.4192442,204.733896 L66.8293432,245.021048 C66.8293432,245.021048 54.2254495,252.67051 44.3615762,267.714448 C34.4977031,282.758385 34.2236842,286.58311 34.2236842,286.58311 L45.1835691,290.917807 L72.5832815,260.064986 C72.5832815,260.064986 80.2552068,255.730293 82.9951751,251.905563 C85.7351434,248.080832 102.722968,208.558626 102.722968,208.558626 L112.312868,249.865707 C112.312868,249.865707 111.764877,264.909644 114.23085,274.598956 C115.747071,280.713659 116.664151,286.943747 116.970818,293.212644 L129.848684,291.937735 C129.848684,291.937735 129.026697,255.730315 127.656708,251.905563 C127.656708,251.905563 133.410651,207.79368 121.902769,190.199925 L115.052842,164.446743 L103.54496,163.936782 L78.8852167,185.610247 Z" id="Path" fill="#2F2E41"></path>
                <path d="M47.7405121,288.817221 L34.371868,281.034483 L28.2222778,292.080949 C28.2222778,292.080949 14.5862567,299.863687 17.5273604,305.637973 C20.4684641,311.412258 23.1421906,312.918602 23.1421906,312.918602 L25.0138026,312.165433 L28.4896494,318.190767 C28.4896494,318.190767 37.580332,330.492512 52.2858449,324.216102 C53.702964,322.428051 53.702964,319.978818 52.2858449,318.190767 C49.8794842,314.92704 43.7299053,307.89747 43.7299053,307.89747 L47.7405121,288.817221 Z" id="Path" fill="#2F2E41"></path>
                <path d="M131.795436,290.402299 L116.996192,291.389725 L118.610652,302.498325 C118.610652,302.498325 111.614649,318.297223 116.458035,319.531515 C119.903849,320.348151 123.411754,320.925782 126.952045,321.259517 L127.490201,319.531515 C127.490201,319.531515 148.20914,329.899541 155.7433,322.246947 C155.7433,322.246947 157.357766,316.816079 152.78345,315.088073 C148.209134,313.360068 139.329596,309.657204 138.253287,307.682336 C137.176979,305.707469 131.795436,290.402299 131.795436,290.402299 Z" id="Path" fill="#2F2E41"></path>
                <ellipse id="Oval" fill="#FFB8B8" cx="95.1217105" cy="96.0201149" rx="13.5888158" ry="12.6465517"></ellipse>
                <path d="M85.1753949,103.045977 C85.1753949,103.045977 86.7498817,112.70452 78.8774449,116.419344 C71.005007,120.134168 99.6082342,124.591954 99.6082342,124.591954 C99.6082342,124.591954 95.147175,118.152929 95.9344214,115.924037 C96.7216678,113.695144 100.657895,104.779563 100.657895,104.779563 L85.1753949,103.045977 Z" id="Path" fill="#FFB8B8"></path>
                <path d="M81.0824708,117.115515 C81.0824708,117.115515 73.0490699,112.799881 70.2789354,114.830768 C67.508802,116.861656 66.6777535,179.057576 76.6502641,181.596188 L76.9272525,184.896377 C76.9272525,184.896377 73.3260704,186.41954 76.6502641,186.41954 C79.9744579,186.41954 95.4871943,176.011245 96.0412365,172.20333 C96.5952787,168.395416 112.662058,167.633837 112.662058,167.633837 C112.662058,167.633837 116.817265,183.880934 118.202332,183.37321 C119.587399,182.865485 119.587405,171.949471 119.033375,170.426303 C118.479344,168.903135 125.404703,164.079782 123.465594,161.033452 C121.526485,157.987121 116.26324,147.578827 116.26324,147.578827 C116.26324,147.578827 116.817235,140.978441 109.337888,134.88579 C109.337888,134.88579 107.152136,123.546071 97.3029701,123.377132 C87.4538055,123.208193 81.0824708,117.115515 81.0824708,117.115515 Z" id="Path" fill="#575A89"></path>
                <polygon id="Path" fill="#2F2E41" points="81.5328947 80.5632184 81.5328947 95.5517241 85.1564984 95.5517241 89.7683029 90.8185118 89.1509036 95.5517241 105.169524 95.5517241 104.181323 90.8185118 106.157724 95.5517241 108.710526 95.5517241 108.710526 80.5632184"></polygon>
                <rect id="Rectangle" fill="#FF500B" x="0" y="205.155172" width="113.743421" height="96.4885057"></rect>
                <path d="M66.3055838,256.022876 C56.6053028,270.509244 59.942665,288.528736 59.942665,288.528736 C59.942665,288.528736 79.0072925,283.061189 88.7075741,268.574826 C98.4078556,254.088463 95.0704928,236.068966 95.0704928,236.068966 C95.0704928,236.068966 76.0058654,241.536512 66.3055838,256.022876 Z" id="Path" fill="#3F3D56"></path>
                <path d="M59.3757148,288.528736 L58.8470592,288.448043 C58.6558854,288.418832 39.6272635,285.380704 28.2311542,272.241792 C16.834955,259.102464 17.1092091,240.517857 17.11294,240.331648 L17.1242845,239.816092 L17.6529456,239.896779 C17.8441138,239.92599 36.8727413,242.964118 48.2689181,256.103453 L48.2689181,256.103453 C59.6650442,269.242348 59.3907957,287.826949 59.3870592,288.013158 L59.3757148,288.528736 Z" id="Path" fill="#D0CDE1"></path>
                <ellipse id="Oval" fill="#3F3D56" cx="62.4078947" cy="232.321839" rx="10.0657895" ry="9.36781609"></ellipse>
                <path d="M62.4078947,179.884183 L65.7290196,202.203453 C65.7290196,202.203453 63.7917124,221.764156 71.2641789,222.014938 C78.7366456,222.265721 74.0317557,201.952671 74.0317557,201.952671 L73.20148,181.639632 C73.20148,181.639632 67.1127788,172.611614 62.4078947,179.884183 Z" id="Path" fill="#FFB8B8"></path>
                <path d="M74.0196767,116.754159 C74.0196767,116.754159 72.0600497,111.95551 67.86085,115.743918 C63.6616494,119.532324 60.0223454,129.382176 60.0223454,135.443614 C60.0223454,141.505053 60.8621866,176.610965 60.8621866,176.610965 C60.8621866,176.610965 56.3830414,178.126324 59.4624552,180.399367 C62.5418691,182.672414 66.7410632,179.136565 66.7410632,179.136565 C66.7410632,179.136565 72.3399944,182.672414 72.8998909,182.672414 C73.4597873,182.672414 73.1798124,178.378883 73.1798124,178.378883 C73.1798124,178.378883 75.9792806,171.812316 75.4193852,166.761082 C74.8594887,161.709847 74.0196767,116.754159 74.0196767,116.754159 Z" id="Path" fill="#575A89"></path>
                <path d="M544.559211,91.8045977 L256.677632,91.8045977 L256.677632,73.0689655 L544.559211,73.0689655 L544.559211,91.8045977 Z M257.739944,90.79186 L543.496921,90.79186 L543.496921,74.0817033 L257.739944,74.0817033 L257.739944,90.79186 Z" id="Shape" fill="#D0CDE1"></path>
                <path d="M29.1907895,231.385057 L1.00657895,231.385057 C3.18225042,223.236481 2.91975768,214.421431 1.00657895,205.155172 L29.1907895,205.155172 C25.2454832,213.898471 25.2454832,222.641766 29.1907895,231.385057 Z" id="Path" fill="#D0CDE1"></path>
                <rect id="Rectangle" fill="#3F3D56" x="6.03947368" y="212.649425" width="17.1118421" height="2.81034483"></rect>
                <rect id="Rectangle" fill="#3F3D56" x="6.03947368" y="218.270115" width="17.1118421" height="2.81034483"></rect>
                <rect id="Rectangle" fill="#3F3D56" x="6.03947368" y="223.890805" width="17.1118421" height="2.81034483"></rect>
                <path d="M285.868421,128.33908 L257.684211,128.33908 C259.859882,120.190504 259.597389,111.375454 257.684211,102.109195 L285.868421,102.109195 C281.923119,110.852494 281.923119,119.595789 285.868421,128.33908 Z" id="Path" fill="#D0CDE1"></path>
                <rect id="Rectangle" fill="#3F3D56" x="260.703947" y="108.666667" width="17.1118421" height="2.81034483"></rect>
                <rect id="Rectangle" fill="#3F3D56" x="260.703947" y="114.287356" width="17.1118421" height="2.81034483"></rect>
                <rect id="Rectangle" fill="#3F3D56" x="260.703947" y="119.908046" width="17.1118421" height="2.81034483"></rect>
                <path d="M498.256579,168.62069 L470.072368,168.62069 C472.248039,160.472114 471.985547,151.657063 470.072368,142.390805 L498.256579,142.390805 C494.311277,151.134103 494.311277,159.877398 498.256579,168.62069 Z" id="Path" fill="#D0CDE1"></path>
                <rect id="Rectangle" fill="#3F3D56" x="475.105263" y="148.011494" width="17.1118421" height="2.81034483"></rect>
                <rect id="Rectangle" fill="#3F3D56" x="475.105263" y="153.632184" width="17.1118421" height="2.81034483"></rect>
                <rect id="Rectangle" fill="#3F3D56" x="475.105263" y="161.126437" width="17.1118421" height="2.81034483"></rect>
                <path d="M534.493421,111.477011 L506.309211,111.477011 C508.484882,103.328435 508.222389,94.5133851 506.309211,85.2471264 L534.493421,85.2471264 C530.548119,93.9904249 530.548119,102.73372 534.493421,111.477011 Z" id="Path" fill="#D0CDE1"></path>
                <rect id="Rectangle" fill="#3F3D56" x="511.342105" y="92.7413793" width="17.1118421" height="2.81034483"></rect>
                <rect id="Rectangle" fill="#3F3D56" x="511.342105" y="98.362069" width="17.1118421" height="2.81034483"></rect>
                <rect id="Rectangle" fill="#3F3D56" x="511.342105" y="103.982759" width="17.1118421" height="2.81034483"></rect>
                <path d="M184.203947,142.390805 L168.098684,142.390805 L168.098684,127.402299 L184.203947,127.402299 L184.203947,142.390805 Z M169.33755,141.237843 L182.965081,141.237843 L182.965081,128.555261 L169.33755,128.555261 L169.33755,141.237843 Z" id="Shape" fill="#3F3D56"></path>
                <path d="M185.210526,174.241379 L169.105263,174.241379 L169.105263,159.252874 L185.210526,159.252874 L185.210526,174.241379 Z M170.344129,173.088418 L183.97166,173.088418 L183.97166,160.405835 L170.344129,160.405835 L170.344129,173.088418 Z" id="Shape" fill="#3F3D56"></path>
                <path d="M185.210526,205.155172 L169.105263,205.155172 L169.105263,190.166667 L185.210526,190.166667 L185.210526,205.155172 Z M170.344129,204.002211 L183.97166,204.002211 L183.97166,191.319628 L170.344129,191.319628 L170.344129,204.002211 Z" id="Shape" fill="#3F3D56"></path>
                <ellipse id="Oval" fill="#FF500B" cx="169.608553" cy="190.635057" rx="4.52960526" ry="4.21551724"></ellipse>
            </g>
        </g>
    </g>
</svg>