<?xml version="1.0" encoding="UTF-8"?>
<svg width="1440px" height="516px" viewBox="0 0 1440 516" version="1.1" xmlns="http://www.w3.org/2000/svg" xmlns:xlink="http://www.w3.org/1999/xlink">
    <!-- Generator: Sketch 64 (93537) - https://sketch.com -->
    <title>Desktop - Diensten_DataIntellegence</title>
    <desc>Created with Sketch.</desc>
    <g id="Desktop---Diensten_DataIntellegence" stroke="none" stroke-width="1" fill="none" fill-rule="evenodd">
        <rect fill="#FFFFFF" x="0" y="0" width="1440" height="516"></rect>
        <circle id="Oval" fill-opacity="0.6" fill="#FFB99D" cx="111" cy="367" r="333"></circle>
        <g id="undraw_our_solution_htvp" transform="translate(837.500000, 99.000000)" fill-rule="nonzero">
            <ellipse id="Oval" fill="#D0CDE1" cx="287" cy="372.5" rx="286.5" ry="18.5"></ellipse>
            <rect id="Rectangle" fill="#3F3D56" x="120.5" y="0" width="332" height="136"></rect>
            <path d="M167.5,51 L142.765927,51 C141.078024,41.0737072 141.078024,30.9262928 142.765927,21 L167.5,21 C164.713511,30.7991234 164.713511,41.2008766 167.5,51 L167.5,51 Z" id="Path" fill="#FF6584"></path>
            <path d="M220.5,44 L245.234073,44 C246.921976,34.0737072 246.921976,23.9262928 245.234073,14 L220.5,14 C223.286489,23.7991234 223.286489,34.2008766 220.5,44 L220.5,44 Z" id="Path" fill="#FF500B"></path>
            <path d="M374.39028,57.0160526 C387.80045,57.1538981 401.196835,56.7491602 414.579434,55.801839 L413.690721,54.6614048 C411.500114,60.0874046 411.560441,65.8063149 411.850807,71.5462903 C411.923559,72.9844085 412.385069,74.9237218 412.086554,76.348127 C411.711143,78.1394398 410.066167,77.7111987 408.430206,77.7629275 C404.826792,77.8768282 401.222528,77.958681 397.617416,78.0084859 C394.212772,78.055518 390.807874,78.0740471 387.402724,78.0640733 C385.800381,78.0591632 384.198074,78.048044 382.595805,78.0307158 C380.714272,78.0102392 378.575548,78.5442928 378.089667,76.4138695 C377.778432,75.0492109 378.091827,73.25427 378.092783,71.8508404 L378.096291,66.7174374 L378.103302,56.4506187 C378.086145,55.9651568 377.678584,55.5802778 377.181669,55.5802778 C376.684755,55.5802778 376.277194,55.9651568 376.260037,56.4506187 L376.251462,68.9989456 L376.247567,74.7027352 C376.246794,75.8356826 376.006021,77.2044493 376.438709,78.2800304 C377.434121,80.7541651 381.735502,79.8259255 383.797481,79.8444759 C388.003482,79.8823191 392.209566,79.8760802 396.415734,79.8257591 C400.621608,79.7759755 404.826613,79.682658 409.030746,79.5458065 C410.841845,79.4869364 413.348079,79.8895947 413.897436,77.7060731 C414.282588,76.1752219 413.833554,74.1792078 413.751376,72.6170915 C413.657592,70.8343917 413.556856,69.0512887 413.532381,67.2660422 C413.475221,63.0972311 413.893109,59.0416297 415.468121,55.1404341 C415.542809,54.8694179 415.484637,54.5798647 415.310644,54.3565897 C415.136652,54.1333148 414.866532,54.00159 414.579408,54 C401.203538,54.9471165 387.807153,55.3518522 374.390254,55.2142072 C373.89367,55.2310278 373.5,55.6294204 373.5,56.1151395 C373.5,56.6008587 373.89367,56.9992512 374.390254,57.0160718 L374.39028,57.0160526 Z" id="Path" fill="#F1F1F1"></path>
            <path d="M378.116827,57.8158255 C383.735935,59.8258137 389.214336,62.2170557 394.51464,64.9732309 C399.270005,67.4572146 405.495473,70.1706714 408.768126,74.6102741 C409.454006,75.5407316 411.021034,74.6324182 410.326157,73.6897713 C406.984248,69.1562097 401.230958,66.488654 396.398268,63.9119095 C390.657792,60.8668278 384.708616,58.241849 378.596534,56.0571791 C377.500575,55.6627418 377.02889,57.4242704 378.116853,57.8158255 L378.116827,57.8158255 Z" id="Path" fill="#F1F1F1"></path>
            <path d="M414.077017,53.0819535 C407.946651,55.6461821 402.75297,60.5866093 397.274513,64.2473709 C391.344558,68.2098198 385.238126,71.8974153 378.955217,75.3101574 C377.91272,75.8795836 378.847067,77.4475387 379.891534,76.8770299 C386.161086,73.4524949 392.267518,69.7648994 398.21083,65.8142435 C403.688153,62.1542358 408.884476,57.2124231 415.013334,54.648826 C416.107718,54.1910656 415.1637,52.6274088 414.077017,53.0819535 L414.077017,53.0819535 Z" id="Path" fill="#F1F1F1"></path>
            <path d="M259.366122,60.8398759 C271.455931,61.1093309 283.545298,61.038709 295.634224,60.6280102 C296.786483,60.588819 296.790699,57.9611425 295.634224,58.0004363 C283.546275,58.4111352 271.456908,58.4817602 259.366122,58.2123114 C258.882986,58.2369107 258.5,58.8178446 258.5,59.5260937 C258.5,60.2343428 258.882986,60.8152767 259.366122,60.8398759 Z" id="Path" fill="#F1F1F1"></path>
            <path d="M259.34356,67.830268 C271.448392,68.1174943 283.552817,68.04018 295.656835,67.5983251 C296.778935,67.557363 296.783172,64.9593551 295.656835,65.0004832 C283.554108,65.4423442 271.449683,65.5196586 259.34356,65.2324261 C258.873009,65.2567471 258.5,65.8311096 258.5,66.5313471 C258.5,67.2315845 258.873009,67.805947 259.34356,67.830268 L259.34356,67.830268 Z" id="Path" fill="#F1F1F1"></path>
            <path d="M257.364851,76.9989681 L292.635154,75.5683883 C293.785017,75.5217497 293.791543,73.9541261 292.635154,74.0010319 L257.364851,75.4316117 C256.214981,75.4782503 256.208456,77.0458739 257.364851,76.9989681 Z" id="Path" fill="#F1F1F1"></path>
            <path d="M313.408282,68 L348.591718,68 C349.098357,67.9813298 349.5,67.5391295 349.5,67 C349.5,66.4608705 349.098357,66.0186702 348.591718,66 L313.408282,66 C312.901643,66.0186702 312.5,66.4608705 312.5,67 C312.5,67.5391295 312.901643,67.9813298 313.408282,68 Z" id="Path" fill="#F1F1F1"></path>
            <path d="M345.273264,57.4827886 L350.801101,62.1774925 C351.433276,62.7143931 353.172201,63.822832 353.565016,64.5248476 C354.377187,65.976252 353.504571,65.6451469 352.112872,66.1480784 C348.693228,67.4142205 345.54212,69.2348053 342.806031,71.5252014 C341.891111,72.2753462 343.232876,73.5158871 344.143283,72.7694479 C346.638657,70.6826498 349.505613,69.0162121 352.615615,67.8448464 C353.730748,67.4343864 355.846477,67.1940156 356.376319,65.9580614 C357.024787,64.4453927 354.959475,63.3291926 353.980961,62.4981556 L346.610517,56.2385483 C345.713145,55.4764244 344.372018,56.7173715 345.273264,57.4827886 L345.273264,57.4827886 Z" id="Path" fill="#F1F1F1"></path>
            <path d="M263.5,128 L288.234073,128 C289.921976,118.073707 289.921976,107.926293 288.234073,98 L263.5,98 C266.286496,107.799122 266.286496,118.200878 263.5,128 L263.5,128 Z" id="Path" fill="#FF500B"></path>
            <path d="M159.5,105 L184.234073,105 C185.921976,95.0737071 185.921976,84.9262929 184.234073,75 L159.5,75 C162.286489,84.7991235 162.286489,95.2008765 159.5,105 Z" id="Path" fill="#FF500B"></path>
            <path d="M316.5,42 L341.234073,42 C342.921976,32.0737072 342.921976,21.9262928 341.234073,12 L316.5,12 C319.286489,21.7991234 319.286489,32.2008766 316.5,42 Z" id="Path" fill="#FF500B"></path>
            <polygon id="Path" fill="#FBBEBE" points="564.166887 342 567.5 355.077023 552.833773 359 551.5 345.269579"></polygon>
            <polygon id="Path" fill="#FBBEBE" points="511.5 358.518634 511.5 370.481366 497.114986 373 494.5 366.703727 499.73062 356"></polygon>
            <path d="M540.515611,225 L538.593747,242.5 L539.875,276.203705 C540.387977,276.192665 540.883177,276.393977 541.245988,276.761049 C541.6088,277.128121 541.807776,277.629135 541.796864,278.148137 C541.796864,280.092568 539.875,279.444429 541.796864,280.740727 C542.827751,281.449029 543.897143,282.098195 544.999987,282.685159 L565.5,345.555526 C565.5,345.555526 560.375,352.037007 550.765617,350.092562 L548.843753,343.611082 C548.843753,343.611082 545.000025,339.722218 545.000025,337.777786 C545.000025,335.833354 546.281279,335.185188 545.000025,333.240743 C543.718772,331.296299 524.499975,291.759257 524.499975,291.759257 L515.531221,275.555558 L512.968721,297.592591 C512.968721,297.592591 518.093721,325.462996 516.812449,338.425925 C515.531177,351.388854 512.968721,365 512.968721,365 L497.593709,362.407403 C497.524023,360.315868 496.856452,358.289637 495.671845,356.574107 C493.749981,353.981509 491.187468,354.629675 493.749981,352.685243 C496.312494,350.740811 499.515611,352.685243 496.953111,350.092645 C494.390611,347.500048 494.390611,344.907464 494.390611,344.907464 L494.390611,342.963032 L490.546883,293.055626 L483.5,227.592655 L540.515611,225 Z" id="Path" fill="#2F2E41"></path>
            <circle id="Oval" fill="#FBBEBE" cx="498" cy="89.5" r="17.5"></circle>
            <polygon id="Path" fill="#FBBEBE" points="511.69068 91 518.5 108.609215 502.404966 121 492.5 102.739692"></polygon>
            <path d="M512.746473,103.223454 L519.217057,100 L523.099383,109.025661 C523.099383,109.025661 548.334664,116.761945 546.393488,152.219905 C544.452312,187.677865 539.922904,201.216362 539.922904,201.216362 C539.922904,201.216362 550.922897,224.425208 544.452312,227.003967 C537.981728,229.582727 482.981719,239.253082 481.687638,230.227421 C480.393557,221.201761 486.217047,168.337161 486.217047,168.337161 C486.217047,168.337161 484.275884,130.300442 500.452335,122.564158 L497.217039,115.472562 L512.746473,103.223454 Z" id="Path" fill="#D0CDE1"></path>
            <path d="M477.45466,229 C477.45466,229 462.723485,243.839328 471.049798,247.549154 C479.376111,251.258979 484.5,230.854916 484.5,230.854916 L477.45466,229 Z" id="Path" fill="#FBBEBE"></path>
            <path d="M507.405685,367.414615 L514.593141,364.878028 C514.593141,364.878028 522.433993,382 515.899946,382 L498.911424,382 C498.911424,382 489.110352,378.829267 483.883117,378.829267 C478.655882,378.829267 468.85481,369.317057 476.042259,364.878028 C483.229708,360.438998 492.377378,361.707289 492.377378,361.707289 L494.990995,356 L498.258022,364.878059 C498.258022,364.878059 502.178451,371.219499 507.405685,367.414615 Z" id="Path" fill="#2F2E41"></path>
            <path d="M560.468312,352.885086 C560.468312,352.885086 564.469003,350.326503 566.621297,351.28204 C568.773592,352.237576 570.051322,362.597867 570.051322,362.597867 C570.051322,362.597867 576.439993,370.368091 562.384914,371.663124 C548.329835,372.958157 545.135503,370.368091 543.857766,366.482979 C542.58003,362.597867 545.135503,358.712754 545.135503,358.712754 L548.968682,357.417721 C548.968682,357.417721 553.440751,354.180126 552.163014,352.885086 C550.885277,351.590047 552.163014,349 552.163014,349 C552.163014,349 556.635134,358.065238 560.468312,352.885086 Z" id="Path" fill="#2F2E41"></path>
            <path d="M503.655206,90.5341154 C503.581949,89.9792941 503.450801,89.4328113 503.263709,88.9027743 C502.296327,86.9696541 498.521852,87.5338902 497.849305,85.4904747 C497.717678,85.0905506 497.745203,84.6555326 497.616221,84.2548232 C497.287332,83.2330526 496.025669,82.7262949 494.904827,82.7753548 C493.793062,82.9215722 492.702625,83.1890154 491.654981,83.5724198 C489.017916,84.2852618 486.212321,84.0131549 483.486667,83.7352555 C482.271296,83.696318 481.080143,83.400965 479.999112,82.8704968 C478.966893,82.2656883 478.223177,81.0481493 478.598949,79.9507313 C478.959242,78.8985409 480.168105,78.3203702 480.711637,77.3421875 C481.574725,75.7889314 480.519697,73.7828401 481.219861,72.1569082 C482.343057,69.5486534 486.59368,70.0723801 488.753205,68.1445245 C489.277391,67.6765737 489.654859,67.0783871 490.157265,66.5892454 C491.64789,65.1380608 494.001993,64.8571647 496.123076,65.0573435 C498.24416,65.2575222 500.328505,65.8508212 502.459654,65.8149105 C504.480738,65.7808657 506.599322,65.1946409 508.461597,65.9434124 C509.556909,66.4772332 510.518536,67.2296778 511.280952,68.1494751 L516.057529,73.1393001 C516.713421,73.7283701 517.218526,74.4530409 517.5339,75.2574395 C517.821275,76.2135142 517.556761,77.2399966 517.679365,78.2275968 C517.958964,80.4799677 520.172825,82.1812455 520.471532,84.4313861 C520.531754,85.1292391 520.496336,85.8315903 520.366169,86.5207329 L519.697079,91.2196286 C519.663441,91.6778622 519.535341,92.1252925 519.320099,92.5363556 C519.125521,92.8529927 518.831346,93.1030733 518.612277,93.404865 C517.993797,94.2569771 518.050264,95.3833322 517.74289,96.3770201 C517.435523,97.3705949 516.33342,98.3539543 515.36931,97.8750595 C514.740335,97.5626315 514.324203,94.9788847 513.560131,94.3080788 C512.495876,93.3737227 511.939885,93.4888806 510.626293,93.5046936 C507.995349,93.5363636 504.49703,93.7512183 503.655206,90.5341154 Z" id="Path" fill="#2F2E41"></path>
            <path d="M507.626968,128.024655 C507.626968,128.024655 527.296553,135.783364 521.395677,153.240453 C515.494802,170.697542 499.759134,224.361911 499.759134,224.361911 L490.580011,228.887854 L487.957402,236 L475.5,231.474088 L477.466946,221.775702 C477.466946,221.775702 478.122596,221.129145 478.122596,218.542911 C478.122596,215.956677 475.5,215.310113 478.778253,215.310113 C482.05652,215.310113 482.056513,212.077322 482.056513,212.077322 L493.858264,139.662699 C493.858264,139.662699 493.858264,127.378098 507.626968,128.024655 Z" id="Path" fill="#D0CDE1"></path>
            <polygon id="Path" fill="#000000" opacity="0.1" points="520.5 155 500.772813 223.588069 492.5 232 497.272656 223.264754"></polygon>
            <polygon id="Path" fill="#2F2E41" points="40.5 114.695381 60 118 66.5 86.6086142 50.7918202 80"></polygon>
            <circle id="Oval" fill="#A0616A" cx="66" cy="90.5" r="17.5"></circle>
            <path d="M58.2578494,101 C58.2578494,101 59.9180057,122.565443 47.1901783,124.267984 C34.4623509,125.970524 58.2578494,164.561316 64.3450892,163.993802 C70.4323289,163.426289 81.5,121.997955 81.5,121.997955 C81.5,121.997955 67.1120226,111.782744 72.092479,102.702553 L58.2578494,101 Z" id="Path" fill="#A0616A"></path>
            <path d="M36.5,178.303031 C36.5,178.303031 38.5166879,195 44.5668201,195 C50.6169523,195 40.5334101,176 40.5334101,176 L36.5,178.303031 Z" id="Path" fill="#A0616A"></path>
            <path d="M136.022083,196 C136.022083,196 153.632513,209.563197 151.284456,213.903422 C148.936398,218.243647 133.674026,209.020668 132.5,198.170112 L136.022083,196 Z" id="Path" fill="#A0616A"></path>
            <path d="M34.8809714,250 L24.2500206,290.248404 L12.5,339 L23.6904698,339 C23.6904698,339 27.6071349,323.694265 34.880946,315.75796 C34.880946,315.75796 42.1547508,303.286623 42.1547508,294.783437 L59.5,253.401272 L34.8809714,250 Z" id="Path" fill="#A0616A"></path>
            <path d="M80.5,251.28313 L83.8488351,288.819275 C83.8488351,288.819275 83.2907002,315.710841 83.8488351,321.873492 C84.4069701,328.036142 83.8488351,337 83.8488351,337 L93.8953533,337 C93.8953533,337 103.383724,303.945783 100.593024,286.018068 L104.5,244 L80.5,251.28313 Z" id="Path" fill="#A0616A"></path>
            <path d="M66.2560015,148.028181 C66.2560015,148.028181 51.1255166,135.937276 55.0404357,119.048339 C55.0404357,119.048339 39.8613002,119.714122 33.6838166,125.943216 C27.5063331,132.172309 35.3685837,153.124709 35.3685837,153.124709 C35.3685837,153.124709 48.8467268,175.775957 46.6003685,185.969025 C44.3540103,196.162092 20.2056672,249.958801 28.0679179,253.356486 C35.9301685,256.754171 83.6652699,268.646082 107.813613,248.826236 C107.813613,248.826236 113.991096,192.764395 89.2811623,174.643397 L89.2811623,160.486394 C89.2811623,160.486394 93.7738787,156.522426 91.5275014,146.329364 C91.5275014,146.329364 101.074526,128.774631 95.4586267,125.376958 C89.842728,121.979286 76.9425987,117 76.9425987,117 C76.9425987,117 78.0493775,142.365371 66.2560015,148.028181 Z" id="Path" fill="#2F2E41"></path>
            <path d="M36.6143733,126.033651 C36.6143733,126.033651 29.1549358,124.921075 21.6955047,135.490516 C14.2360736,146.059957 -5.27321712,162.748542 3.9076076,171.092837 C13.0884323,179.437132 37.7619691,185 37.7619691,185 L43.5,174.986841 L18.8264827,163.30483 L39.4833823,148.285103 L36.6143733,126.033651 Z" id="Path" fill="#2F2E41"></path>
            <path d="M93.6000199,125 C93.6000199,125 101.533349,125 104.933345,134.661871 C108.333341,144.323741 128.166669,177.287777 128.166669,177.287777 L139.5,194.906502 L131.566646,204 L109.466677,178.992806 L88.5,144.323735 L93.6000199,125 Z" id="Path" fill="#2F2E41"></path>
            <path d="M24.8401865,337 L9.60671152,337 L6.34239105,365.487984 C6.34239105,365.487984 -2.36243683,380.604057 10.6948142,378.85989 C23.7520653,377.115722 19.3996606,361.418273 19.3996606,361.418273 L22.6639749,355.604395 L23.7520838,367.813535 L24.8401865,367.232145 L24.8401865,353.860234 C24.8401865,353.860234 30.8247669,348.046362 24.8401865,337 Z" id="Path" fill="#2F2E41"></path>
            <path d="M97.5,336.130631 L83.3276525,335 L80.6022051,366.65829 C80.6022051,366.65829 78.9669293,378.530155 88.7785597,376.83417 C98.5901901,375.138185 95.3196384,365.52764 95.3196384,365.52764 L95.3196384,348.002496 L97.5,336.130631 Z" id="Path" fill="#2F2E41"></path>
            <path d="M52.314243,72.3501013 C52.314243,72.3501013 43.9425197,75.1047881 43.5173875,85.9836516 C43.4741984,87.7235789 43.6696744,89.461276 44.098497,91.1494633 C44.5698941,93.1215653 44.8729449,97.3649087 41.2196676,102.91007 C38.7734136,106.57112 36.5386922,110.365703 34.5261905,114.27567 L34.5,114.327378 L43.6944488,115.461896 L45.6494902,100.417494 C46.5973447,93.1236098 48.6279447,86.0072304 51.675965,79.2972923 L51.7395883,79.1572288 C51.7395883,79.1572288 55.7621581,86.5316121 63.8072975,86.5316121 L60.9340372,83.6953138 C60.9340372,83.6953138 73.5764011,88.8006546 78.1736255,88.8006546 C78.1736255,88.8006546 81.6215405,91.0696778 78.1736255,94.473264 C74.7257104,97.8768502 67.8298673,105.81847 71.8524435,112.058355 C75.8750198,118.298239 72.4270917,120 72.4270917,120 L78.7482737,116.596439 L81.6215405,114.894659 L81.6215405,117.163682 L96.5625167,115.461896 C96.5625167,115.461896 100.585086,114.89464 91.9652922,105.251208 C91.9652922,105.251208 89.6890928,101.506349 90.684952,98.2764593 C91.5032446,95.8217931 91.7182817,93.2101873 91.3123069,90.6572929 C89.3812546,80.0230068 81.8048483,58.8807257 52.314243,72.3501013 Z" id="Path" fill="#2F2E41"></path>
            <path d="M374.089988,389 C374.016826,388.87354 372.291711,385.826666 371.693633,379.499763 C371.145055,373.695165 371.497803,363.911056 376.294876,350.263036 C385.382796,324.407745 374.200514,303.546317 374.086254,303.338538 L374.637945,303 C376.791077,307.358291 378.346359,312.018761 379.256934,316.841003 C381.509202,328.069723 380.689066,339.744879 376.892643,350.498197 C367.820294,376.309339 374.565087,388.528106 374.634204,388.648638 L374.089988,389 Z" id="Path" fill="#3F3D56"></path>
            <circle id="Oval" fill="#3F3D56" cx="371" cy="299.5" r="4.5"></circle>
            <circle id="Oval" fill="#3F3D56" cx="385" cy="315.5" r="4.5"></circle>
            <circle id="Oval" fill="#FF500B" cx="375" cy="325.5" r="4.5"></circle>
            <circle id="Oval" fill="#FF500B" cx="387" cy="334.5" r="4.5"></circle>
            <circle id="Oval" fill="#3F3D56" cx="373" cy="349.5" r="4.5"></circle>
            <path d="M378.166668,389 C378.166668,389 374,378.14286 386.5,370 L378.166668,389 Z" id="Path" fill="#3F3D56"></path>
            <path d="M371.5,389 C371.5,389 369.554882,378.914128 354.5,379.000552 L371.5,389 Z" id="Path" fill="#3F3D56"></path>
            <path d="M200.089994,358 C200.016826,357.87354 198.29171,354.826666 197.693633,348.499763 C197.145055,342.695165 197.497803,332.911056 202.294875,319.263036 C211.382793,293.407745 200.200513,272.546317 200.086253,272.338538 L200.637944,272 C202.791078,276.358289 204.34636,281.018761 205.256932,285.841003 C207.509202,297.069722 206.689067,308.74488 202.892641,319.498197 C193.820295,345.309332 200.565093,357.528106 200.63424,357.648638 L200.089994,358 Z" id="Path" fill="#D0CDE1"></path>
            <circle id="Oval" fill="#3F3D56" cx="197" cy="266.5" r="4.5"></circle>
            <circle id="Oval" fill="#3F3D56" cx="209" cy="283.5" r="4.5"></circle>
            <circle id="Oval" fill="#D0CDE1" cx="200" cy="294.5" r="4.5"></circle>
            <circle id="Oval" fill="#D0CDE1" cx="212" cy="302.5" r="4.5"></circle>
            <circle id="Oval" fill="#3F3D56" cx="198" cy="316.5" r="4.5"></circle>
            <path d="M203.166666,358 C203.166666,358 199,347.14286 211.5,339 L203.166666,358 Z" id="Path" fill="#D0CDE1"></path>
            <path d="M197.5,358 C197.5,358 195.554881,347.914128 180.5,348.000552 L197.5,358 Z" id="Path" fill="#D0CDE1"></path>
        </g>
    </g>
</svg>